<svg width="42" height="49" viewBox="0 0 42 49" fill="none" xmlns="http://www.w3.org/2000/svg">
<path d="M9.22765 12.42C11.5377 9.42 13.7179 6.69 14.4479 3.33C14.4479 3.33 14.4479 3.33 14.4479 3.26C13.6985 2.47417 12.8396 1.80057 11.8978 1.26C11.8064 1.19694 11.7001 1.15874 11.5895 1.14915C11.4788 1.13956 11.3676 1.15892 11.2667 1.20532C11.1658 1.25173 11.079 1.32358 11.0143 1.41382C10.9496 1.50405 10.9094 1.60957 10.8978 1.72C10.7898 2.35422 10.646 2.98187 10.4676 3.6C10.1548 4.62562 9.66774 5.5897 9.0277 6.45C7.8277 8.06 6.3477 9.51 5.0277 11.04C1.8877 14.69 -0.522231 19.2 0.0977695 24.16C0.280718 25.6417 0.738652 27.0763 1.44787 28.39C2.21314 23.7589 4.05968 19.3735 6.83776 15.59C7.59776 14.51 8.42765 13.45 9.22765 12.42Z" fill="white"/>
<path d="M37.1978 14.22C37.1718 14.2116 37.1437 14.2116 37.1177 14.22C37.1238 14.8948 37.0397 15.5674 36.8677 16.22C36.6559 16.841 36.3151 17.4101 35.8677 17.89C35.4941 18.324 35.0346 18.676 34.5183 18.9239C34.002 19.1717 33.44 19.31 32.8677 19.33C31.9713 19.3207 31.1071 18.9949 30.4277 18.41C28.3577 16.69 27.9477 13.75 27.3477 11.29C26.7361 8.81267 25.5593 6.51057 23.9094 4.56401C22.2595 2.61745 20.1813 1.07929 17.8377 0.0700004C17.7407 0.0241842 17.6348 0.000284925 17.5276 7.3085e-07C17.3328 -0.000269283 17.1454 0.0742878 17.0039 0.208276C16.8625 0.342263 16.7778 0.52545 16.7676 0.720002C16.6909 1.74715 16.5541 2.7689 16.3577 3.78C15.2577 8.88 11.3578 12.65 8.43776 16.78C5.09776 21.53 2.75768 27.33 3.35768 33.23C4.09768 40.52 9.25764 45.85 15.5676 48.23C14.3944 47.3793 13.4145 46.2899 12.6924 45.0335C11.9702 43.777 11.5222 42.382 11.3777 40.94C11.1881 37.4679 12.2213 34.0392 14.2976 31.25C15.9576 28.82 18.2077 26.6 18.8477 23.6C18.9622 23.0054 19.039 22.4042 19.0777 21.8C19.0795 21.7275 19.0994 21.6567 19.1353 21.5937C19.1711 21.5307 19.2219 21.4776 19.2832 21.439C19.3446 21.4004 19.4145 21.3776 19.4868 21.3725C19.5591 21.3674 19.6316 21.3803 19.6978 21.41C21.0488 22.0221 22.2409 22.9365 23.1824 24.0826C24.1239 25.2287 24.7895 26.5759 25.1277 28.02C25.4677 29.46 25.7077 31.2 26.8977 32.21C28.5377 33.6 30.7075 32.11 30.7175 30.1V29.89L30.8076 29.76C31.0297 30.1125 31.2269 30.48 31.3977 30.86V30.91C32.3901 33.0172 32.95 35.302 33.0444 37.6293C33.1389 39.9566 32.7661 42.2793 31.9478 44.46C31.5639 45.4014 31.0377 46.2783 30.3877 47.06C29.8278 47.7255 29.182 48.314 28.4675 48.81C31.58 47.8901 34.3589 46.0873 36.4675 43.62C37.5977 42.2946 38.5186 40.804 39.1978 39.2C39.7985 37.7709 40.2605 36.2874 40.5776 34.77C40.8959 33.2356 41.0799 31.6764 41.1277 30.11C41.1792 28.5333 41.1057 26.955 40.9077 25.39C40.714 23.8314 40.3995 22.2901 39.9675 20.78C39.5457 19.2919 39.0041 17.8405 38.3477 16.44C38.1677 16.07 37.9776 15.68 37.7876 15.31L37.4776 14.72C37.422 14.5348 37.3266 14.3642 37.1978 14.22Z" fill="white"/>
</svg>
