<svg width="42" height="38" viewBox="0 0 42 38" fill="none" xmlns="http://www.w3.org/2000/svg">
<path d="M34.55 2.70597e-09H6.61011C5.74207 2.70586e-09 4.88253 0.170929 4.08057 0.503113C3.2786 0.835296 2.54983 1.32224 1.93604 1.93604C1.32224 2.54983 0.835357 3.27848 0.503174 4.08044C0.17099 4.88241 0 5.74195 0 6.60999V35.23C0 35.9142 0.271771 36.5705 0.755615 37.0543C1.23946 37.5382 1.89582 37.81 2.58008 37.81C3.07848 37.8049 3.56465 37.6555 3.97998 37.38L9.43994 33.79C9.85796 33.5134 10.3489 33.3672 10.8501 33.37H34.55C36.3031 33.37 37.9845 32.6736 39.2241 31.434C40.4637 30.1943 41.1602 28.5131 41.1602 26.76V6.65997C41.1668 5.78774 41.0006 4.92285 40.6714 4.11511C40.3422 3.30737 39.8562 2.57278 39.2417 1.95367C38.6272 1.33457 37.8965 0.843179 37.0913 0.507874C36.2861 0.172568 35.4223 -2.49524e-05 34.55 2.70597e-09ZM10.0701 19.12C9.37255 19.12 8.70367 18.8429 8.21045 18.3497C7.71723 17.8564 7.43994 17.1875 7.43994 16.49C7.43994 15.7925 7.71723 15.1235 8.21045 14.6303C8.70367 14.1371 9.37255 13.86 10.0701 13.86C10.7676 13.86 11.4365 14.1371 11.9297 14.6303C12.4229 15.1235 12.7 15.7925 12.7 16.49C12.7 17.1858 12.4244 17.8532 11.9333 18.3461C11.4423 18.8391 10.7759 19.1173 10.0801 19.12H10.0701ZM20.5801 19.12C19.8826 19.12 19.2137 18.8429 18.7205 18.3497C18.2272 17.8564 17.95 17.1875 17.95 16.49C17.95 15.7925 18.2272 15.1235 18.7205 14.6303C19.2137 14.1371 19.8826 13.86 20.5801 13.86C21.2776 13.86 21.9465 14.1371 22.4397 14.6303C22.9329 15.1235 23.21 15.7925 23.21 16.49C23.21 16.8379 23.1411 17.1824 23.0071 17.5034C22.873 17.8245 22.6766 18.1157 22.4292 18.3604C22.1818 18.605 21.8882 18.7981 21.5657 18.9285C21.2431 19.0589 20.8979 19.124 20.55 19.12H20.5801ZM31.0901 19.12C30.3926 19.12 29.7237 18.8429 29.2305 18.3497C28.7372 17.8564 28.46 17.1875 28.46 16.49C28.46 15.7925 28.7372 15.1235 29.2305 14.6303C29.7237 14.1371 30.3926 13.86 31.0901 13.86C31.7876 13.86 32.4565 14.1371 32.9497 14.6303C33.4429 15.1235 33.72 15.7925 33.72 16.49C33.72 17.1858 33.4444 17.8532 32.9534 18.3461C32.4623 18.8391 31.7959 19.1173 31.1001 19.12H31.0901Z" fill="black"/>
</svg>
