<svg width="20" height="18" viewBox="0 0 20 18" fill="none" xmlns="http://www.w3.org/2000/svg">
<path d="M17.6433 1.26182C15.0064 -0.470184 11.7503 0.338079 9.99234 2.3203C8.2344 0.338079 4.97823 -0.479794 2.34136 1.26182C0.942994 2.18556 0.0640485 3.74439 0.00411378 5.38978C-0.135706 9.12326 3.30023 12.1159 8.54405 16.7057L8.64393 16.7922C9.40301 17.4562 10.5716 17.4562 11.3308 16.7827L11.4406 16.6864C16.6844 12.1062 20.1104 9.11365 19.9806 5.38017C19.9206 3.74439 19.0417 2.18556 17.6433 1.26182ZM10.0922 15.2719L9.99234 15.3681L9.89246 15.2719C5.13804 11.1247 2.00174 8.38235 2.00174 5.60148C2.00174 3.67704 3.49998 2.23369 5.49765 2.23369C7.03584 2.23369 8.53404 3.18634 9.06343 4.50456H10.9312C11.4506 3.18634 12.9488 2.23369 14.487 2.23369C16.4847 2.23369 17.9829 3.67704 17.9829 5.60148C17.9829 8.38235 14.8466 11.1247 10.0922 15.2719Z" fill="#335C7A"/>
<path d="M11.3559 16.7726C10.5967 17.4365 9.42814 17.4365 8.66902 16.763L8.55917 16.6668C3.31531 12.0962 -0.110653 9.10365 0.0191917 5.37025C0.0791258 3.73447 0.948136 2.16603 2.35648 1.24229C4.99335 -0.489715 8.24952 0.318548 10.0075 2.30077C11.7654 0.318548 15.0215 -0.499325 17.6584 1.24229C19.0668 2.16603 19.9357 3.73447 19.9957 5.37025C20.1355 9.10365 16.6996 12.0962 11.4557 16.686L11.3559 16.7726Z" fill="#F94868"/>
</svg>
