<svg width="20" height="18" viewBox="0 0 20 18" fill="none" xmlns="http://www.w3.org/2000/svg">
<path d="M17.6433 0.972757C15.0064 -0.759246 11.7503 0.0490164 9.99234 2.03123C8.2344 0.0490164 4.97823 -0.768857 2.34136 0.972757C0.942994 1.8965 0.0640485 3.45532 0.00411378 5.10072C-0.135706 8.8342 3.30023 11.8268 8.54405 16.4166L8.64393 16.5032C9.40301 17.1671 10.5716 17.1672 11.3308 16.4936L11.4406 16.3973C16.6844 11.8171 20.1104 8.82459 19.9806 5.09111C19.9206 3.45532 19.0417 1.8965 17.6433 0.972757ZM10.0922 14.9829L9.99234 15.0791L9.89246 14.9829C5.13804 10.8356 2.00174 8.09329 2.00174 5.31242C2.00174 3.38798 3.49998 1.94463 5.49765 1.94463C7.03584 1.94463 8.53404 2.89727 9.06343 4.2155H10.9312C11.4506 2.89727 12.9488 1.94463 14.487 1.94463C16.4847 1.94463 17.9829 3.38798 17.9829 5.31242C17.9829 8.09329 14.8466 10.8356 10.0922 14.9829Z" fill="#335C7A"/>
<path d="M10.8196 1.57803L9.99957 2.40003L9.17557 1.57603C8.16748 0.568076 6.80028 0.00186556 5.37472 0.00195932C3.94916 0.00205309 2.58203 0.568444 1.57407 1.57653C0.566117 2.58462 -9.37565e-05 3.95183 1.16446e-08 5.37739C9.37798e-05 6.80294 0.566484 8.17008 1.57457 9.17803L9.46957 17.073C9.6102 17.2135 9.80082 17.2924 9.99957 17.2924C10.1983 17.2924 10.3889 17.2135 10.5296 17.073L18.4316 9.17603C19.4385 8.16786 20.0039 6.80119 20.0038 5.37632C20.0036 3.95145 19.4377 2.58494 18.4306 1.57703C17.9309 1.07707 17.3377 0.680465 16.6847 0.409871C16.0318 0.139276 15.3319 0 14.6251 0C13.9183 0 13.2184 0.139276 12.5654 0.409871C11.9124 0.680465 11.3192 1.07707 10.8196 1.57703V1.57803ZM17.3676 8.11803L9.99957 15.483L2.63457 8.11803C2.2716 7.7589 1.98319 7.33158 1.78591 6.86063C1.58863 6.38967 1.48637 5.88437 1.48501 5.37376C1.48365 4.86316 1.58322 4.35732 1.77799 3.88532C1.97277 3.41332 2.2589 2.98447 2.61996 2.62342C2.98101 2.26236 3.40986 1.97622 3.88186 1.78145C4.35386 1.58668 4.8597 1.48711 5.3703 1.48847C5.88091 1.48983 6.38621 1.59208 6.85717 1.78937C7.32812 1.98665 7.75545 2.27506 8.11457 2.63803L9.47257 3.99503C9.54323 4.06577 9.62731 4.12166 9.71988 4.15943C9.81244 4.1972 9.91163 4.21608 10.0116 4.21496C10.1116 4.21385 10.2103 4.19275 10.302 4.15292C10.3937 4.11309 10.4765 4.05533 10.5456 3.98303L11.8796 2.63803C12.6149 1.95361 13.587 1.58104 14.5914 1.59872C15.5958 1.61639 16.5542 2.02292 17.2649 2.73279C17.9757 3.44266 18.3835 4.40053 18.4024 5.4049C18.4214 6.40927 18.0501 7.38185 17.3666 8.11803H17.3676Z" fill="#536471"/>
</svg>
