<svg width="37" height="37" viewBox="0 0 37 37" fill="none" xmlns="http://www.w3.org/2000/svg">
<path d="M34.2499 11.9653L34.2503 11.9654C34.7348 12.0921 35.1825 12.3453 35.5508 12.7037C35.9193 13.0622 36.1961 13.5141 36.3532 14.0178C36.5103 14.5217 36.542 15.0594 36.445 15.5801C36.3481 16.1006 36.1261 16.5853 35.8016 16.989L35.8011 16.9897L31.1751 22.7657C31.175 22.7657 31.175 22.7657 31.175 22.7658C31.1749 22.7658 31.1749 22.7659 31.1749 22.7659C30.5238 23.5779 30.1998 24.6159 30.2653 25.665L30.2654 25.6661L30.7508 33.1721C30.7781 33.6004 30.7208 34.0298 30.5827 34.4333C30.4446 34.8368 30.229 35.2052 29.9502 35.5163C29.6715 35.8273 29.3357 36.0742 28.9642 36.2429C28.5932 36.4114 28.1941 36.4987 27.7908 36.5C27.4134 36.4997 27.039 36.4255 26.687 36.2806C26.6867 36.2805 26.6865 36.2804 26.6863 36.2803L19.9836 33.4776L19.98 33.4761C19.5081 33.2831 19.0052 33.183 18.4972 33.1815L18.4932 33.1816C17.9883 33.1841 17.4886 33.2841 17.0197 33.4762L17.0163 33.4776L10.3139 36.2803C10.3135 36.2805 10.3132 36.2806 10.3129 36.2808C9.96092 36.4255 9.5866 36.4997 9.20931 36.5C8.80603 36.4987 8.40667 36.4114 8.03569 36.2429C7.66424 36.0742 7.32845 35.8273 7.04975 35.5163C6.77098 35.2052 6.55533 34.8368 6.41726 34.4333C6.27919 34.0298 6.22185 33.6005 6.2491 33.1722C6.24911 33.1722 6.24911 33.1721 6.24911 33.1721L6.73477 25.6661L6.73484 25.665C6.8003 24.6158 6.47629 23.5777 5.82505 22.7657L1.19886 16.9897L1.19832 16.989C0.873834 16.5853 0.651796 16.1006 0.554884 15.5801C0.457981 15.0595 0.489837 14.5218 0.646957 14.0178C0.804044 13.514 1.08069 13.0621 1.4491 12.7037C1.81741 12.3454 2.26531 12.0921 2.74989 11.9654L2.75027 11.9653L9.75351 10.1286L9.75421 10.1284C10.748 9.86626 11.6012 9.21789 12.1418 8.32443L12.1419 8.32425L15.9928 1.95355L15.9929 1.95357L15.9959 1.94845C16.2599 1.49968 16.6295 1.13199 17.0668 0.879124C17.5039 0.62636 17.9947 0.496354 18.4919 0.500157V0.500237L18.5008 0.500145C18.9993 0.495042 19.4917 0.62444 19.9302 0.877245C20.3688 1.13013 20.7393 1.49849 21.004 1.94844L21.004 1.94845L21.0068 1.95313L24.8493 8.32384L24.8511 8.32683C25.3969 9.21761 26.2514 9.86403 27.245 10.1282L27.2466 10.1286L34.2499 11.9653Z" stroke="#E2F163"/>
</svg>
