<svg width="37" height="37" viewBox="0 0 37 37" fill="none" xmlns="http://www.w3.org/2000/svg">
<path d="M34.3767 11.4817L27.3735 9.64497C26.5076 9.41478 25.7581 8.85012 25.2774 8.0656L21.435 1.69489C21.1274 1.17203 20.695 0.74109 20.1799 0.444085C19.6648 0.14708 19.0845 -0.00585689 18.4957 0.000171564C17.9084 -0.00432081 17.33 0.149347 16.8165 0.446279C16.303 0.74321 15.8718 1.17333 15.5649 1.69489L11.714 8.0656C11.2385 8.85144 10.4912 9.41688 9.62667 9.64497L2.62343 11.4817C2.05374 11.6306 1.52964 11.9278 1.10043 12.3453C0.671222 12.7629 0.351009 13.2872 0.169618 13.869C-0.0117722 14.4508 -0.0484628 15.0711 0.0633289 15.6716C0.175121 16.2721 0.431587 16.8332 0.808603 17.3022L5.435 23.0785C6.00697 23.7917 6.29366 24.7066 6.23581 25.6339L5.75012 33.1403C5.71868 33.634 5.78471 34.1291 5.94419 34.5952C6.10367 35.0612 6.35325 35.4883 6.6774 35.85C7.00155 36.2117 7.39345 36.5003 7.8289 36.6981C8.26436 36.8959 8.73414 36.9987 9.20921 37C9.65257 36.9998 10.0919 36.9125 10.5042 36.7427L17.2092 33.9389C17.6191 33.771 18.0553 33.6837 18.4957 33.6816C18.939 33.6829 19.3781 33.7701 19.7907 33.9389L26.4959 36.7427C26.9082 36.9125 27.3476 36.9998 27.7909 37C28.266 36.9987 28.7356 36.8959 29.171 36.6981C29.6065 36.5003 29.9984 36.2117 30.3225 35.85C30.6467 35.4883 30.8963 35.0612 31.0557 34.5952C31.2152 34.1291 31.2812 33.634 31.2498 33.1403L30.7643 25.6339C30.7065 24.7066 30.9932 23.7917 31.5651 23.0785L36.1913 17.3022C36.5683 16.8332 36.8248 16.2721 36.9366 15.6716C37.0484 15.0711 37.0119 14.4508 36.8305 13.869C36.6491 13.2872 36.3287 12.7629 35.8995 12.3453C35.4703 11.9278 34.9464 11.6306 34.3767 11.4817Z" fill="#E2F163"/>
</svg>
