<svg width="55" height="55" viewBox="0 0 55 55" fill="none" xmlns="http://www.w3.org/2000/svg">
<path d="M27.5 55C34.7928 54.9977 41.7862 52.0992 46.9429 46.9417C52.0997 41.7841 54.9977 34.7896 55 27.4957C54.9977 20.2027 52.0993 13.2089 46.9423 8.05278C41.7853 2.89661 34.7919 -3.68437e-07 27.5 0C20.2081 -3.68437e-07 13.2145 2.89661 8.0575 8.05278C2.9005 13.2089 0.00231785 20.2027 0 27.4957C0.002317 34.7896 2.90032 41.7841 8.05708 46.9417C13.2138 52.0992 20.2072 54.9977 27.5 55ZM15.5855 34.5509L25.7517 26.6825V15.6232C25.7517 15.1594 25.9359 14.7146 26.2637 14.3867C26.5916 14.0588 27.0363 13.8747 27.5 13.8747C27.9637 13.8747 28.4082 14.0588 28.7361 14.3867C29.0639 14.7146 29.2483 15.1594 29.2483 15.6232V27.5393C29.2483 27.5393 29.2483 27.6093 29.2483 27.6443C29.2483 27.6793 29.2483 27.7667 29.2483 27.8278C29.2378 27.8814 29.2231 27.9339 29.2045 27.9852C29.2095 28.0404 29.2095 28.0962 29.2045 28.1514L29.1345 28.3087L29.056 28.4573L28.9597 28.5973C28.9265 28.6422 28.8885 28.6832 28.8462 28.7196C28.807 28.7676 28.7629 28.8114 28.7149 28.8507L28.6449 28.9207L17.7971 37.3574C17.4316 37.6404 16.9689 37.767 16.5102 37.7096C16.0516 37.6523 15.6342 37.4156 15.3495 37.0514C15.1974 36.8733 15.0826 36.6664 15.0119 36.4431C14.9412 36.2197 14.9163 35.9843 14.9383 35.7511C14.9603 35.5178 15.0289 35.2915 15.1402 35.0853C15.2514 34.8792 15.4027 34.6974 15.5855 34.5509Z" fill="white"/>
</svg>
