<svg width="50" height="57" viewBox="0 0 50 57" fill="none" xmlns="http://www.w3.org/2000/svg">
<path d="M49.8638 31.12C49.8638 32.1809 49.4423 33.1983 48.6921 33.9485C47.942 34.6986 46.9246 35.12 45.8638 35.12C45.6526 35.1149 45.4422 35.0949 45.2339 35.0601H45.0337C41.7154 34.4837 38.6311 32.9708 36.1438 30.7L39.8938 22.8199C40.6195 23.9761 41.5837 24.9642 42.7219 25.7178C43.8601 26.4714 45.1461 26.9732 46.4939 27.1899C47.437 27.3399 48.2954 27.8224 48.9138 28.55C49.5232 29.2682 49.8595 30.1782 49.8638 31.12Z" fill="black"/>
<path d="M21.4539 41.05C20.3966 41.8734 19.245 42.5682 18.0238 43.12C15.418 44.2618 12.5988 44.8346 9.754 44.8C7.38459 44.8068 5.02673 44.47 2.754 43.8C1.75405 43.4722 0.923534 42.7636 0.442473 41.8276C-0.0385881 40.8917 -0.131512 39.804 0.183928 38.8C0.396759 38.1486 0.77337 37.5628 1.27768 37.0988C1.78199 36.6347 2.39696 36.308 3.06381 36.15C4.78381 35.74 6.44387 36.6201 8.12387 36.8101C9.92264 37.0097 11.7433 36.8395 13.474 36.3101C14.5606 35.9916 15.5781 35.4726 16.474 34.78C16.7177 35.5731 17.0533 36.335 17.474 37.05C18.4638 38.6808 19.8282 40.052 21.4539 41.05Z" fill="black"/>
<path d="M48.4237 54.82C48.4237 55.2178 48.2656 55.5993 47.9843 55.8806C47.703 56.162 47.3215 56.32 46.9237 56.32H14.9237C14.5259 56.32 14.1442 56.162 13.8629 55.8806C13.5816 55.5993 13.4237 55.2178 13.4237 54.82C13.4237 54.4222 13.5816 54.0407 13.8629 53.7594C14.1442 53.4781 14.5259 53.32 14.9237 53.32H34.9237C35.1537 53.32 35.2338 53.26 35.2138 53C35.1434 51.5018 34.9832 50.0091 34.7338 48.5301C34.4033 46.7886 33.7667 45.1194 32.8537 43.6C32.348 42.7796 31.736 42.0298 31.0336 41.37C30.8036 41.16 30.5536 40.95 30.2936 40.74C29.3333 39.9892 28.2461 39.4169 27.0836 39.0501C24.5936 38.2101 22.3537 37.4101 20.9337 35.0501C20.4119 34.1755 20.0792 33.2013 19.9569 32.1902C19.8346 31.1792 19.9255 30.1538 20.2238 29.1801C20.5638 28.3001 21.0738 27.44 21.4838 26.59L24.8336 19.51C24.9236 19.32 25.4537 17.78 25.6737 17.73C24.8547 17.8879 24.049 18.1086 23.2638 18.39C20.5119 19.4249 17.9905 20.9913 15.8436 23C15.4536 23.352 14.9981 23.6238 14.5031 23.7997C14.008 23.9756 13.4833 24.0522 12.9586 24.0253C12.434 23.9984 11.9196 23.8684 11.4452 23.6427C10.9708 23.417 10.5457 23.1001 10.1937 22.71C9.84175 22.32 9.56986 21.8646 9.39394 21.3695C9.21801 20.8745 9.14142 20.3497 9.16835 19.825C9.19528 19.3003 9.32523 18.7861 9.55092 18.3117C9.7766 17.8373 10.0937 17.412 10.4838 17.0601C13.403 14.3552 16.824 12.2488 20.5536 10.86C23.2012 9.896 25.996 9.39866 28.8136 9.39005C30.227 9.38748 31.6372 9.52485 33.0236 9.80008C33.3933 9.82725 33.7572 9.90809 34.1037 10.0401C34.5743 10.1093 35.0347 10.2369 35.4738 10.4201C36.9417 11.0341 38.1055 12.2061 38.7094 13.6783C39.3132 15.1504 39.3076 16.8021 38.6937 18.2701L38.3937 18.99L31.9638 32.5C32.3438 32.68 32.7337 32.87 33.1037 33.07C33.4737 33.27 34.1036 33.68 34.5636 34.01C36.0172 35.0409 37.317 36.2733 38.4237 37.6701C40.6611 40.6185 42.1349 44.0743 42.7138 47.73C43.1094 49.5864 43.1973 51.4952 42.9738 53.38C44.2838 53.38 45.5937 53.38 46.9037 53.38C47.2948 53.3745 47.6725 53.5219 47.9564 53.7909C48.2404 54.0599 48.4081 54.4292 48.4237 54.82Z" fill="black"/>
<path d="M7.6438 53.3199H4.03369C3.63587 53.3199 3.25445 53.4781 2.97314 53.7594C2.69184 54.0407 2.53369 54.4221 2.53369 54.8199C2.53369 55.2178 2.69184 55.5993 2.97314 55.8806C3.25445 56.1619 3.63587 56.3199 4.03369 56.3199H7.6438C8.04162 56.3199 8.42304 56.1619 8.70435 55.8806C8.98565 55.5993 9.1438 55.2178 9.1438 54.8199C9.1438 54.4221 8.98565 54.0407 8.70435 53.7594C8.42304 53.4781 8.04162 53.3199 7.6438 53.3199Z" fill="black"/>
<path d="M39.1138 9.54C41.7482 9.54 43.8838 7.4044 43.8838 4.77C43.8838 2.1356 41.7482 0 39.1138 0C36.4794 0 34.3438 2.1356 34.3438 4.77C34.3438 7.4044 36.4794 9.54 39.1138 9.54Z" fill="black"/>
</svg>
